<svg width="436" height="436" viewBox="0 0 436 436" fill="none" xmlns="http://www.w3.org/2000/svg">
<path d="M254.984 114.48C254.676 113.192 254.116 112.226 253.304 111.582C252.492 110.938 251.358 110.616 249.902 110.616C247.69 110.616 246.038 111.47 244.946 113.178C243.854 114.858 243.28 117.658 243.224 121.578C243.952 120.346 245.016 119.394 246.416 118.722C247.816 118.05 249.328 117.714 250.952 117.714C252.8 117.714 254.424 118.12 255.824 118.932C257.252 119.716 258.358 120.864 259.142 122.376C259.954 123.888 260.36 125.694 260.36 127.794C260.36 129.754 259.968 131.504 259.184 133.044C258.428 134.584 257.294 135.802 255.782 136.698C254.27 137.566 252.45 138 250.322 138C247.438 138 245.17 137.37 243.518 136.11C241.894 134.822 240.746 133.016 240.074 130.692C239.43 128.368 239.108 125.47 239.108 121.998C239.108 111.75 242.72 106.626 249.944 106.626C252.744 106.626 254.942 107.382 256.538 108.894C258.162 110.406 259.114 112.268 259.394 114.48H254.984ZM249.902 121.746C248.194 121.746 246.738 122.264 245.534 123.3C244.358 124.308 243.77 125.778 243.77 127.71C243.77 129.642 244.316 131.182 245.408 132.33C246.528 133.45 248.082 134.01 250.07 134.01C251.834 134.01 253.22 133.464 254.228 132.372C255.264 131.28 255.782 129.824 255.782 128.004C255.782 126.1 255.278 124.588 254.27 123.468C253.29 122.32 251.834 121.746 249.902 121.746ZM288.651 124.854H280.167V133.548H275.715V124.854H267.231V120.822H275.715V112.128H280.167V120.822H288.651V124.854Z" fill="white"/>
<path d="M62.166 292.49C64.854 290.166 66.968 288.262 68.508 286.778C70.076 285.266 71.378 283.698 72.414 282.074C73.45 280.45 73.968 278.826 73.968 277.202C73.968 275.522 73.562 274.206 72.75 273.254C71.966 272.302 70.72 271.826 69.012 271.826C67.36 271.826 66.072 272.358 65.148 273.422C64.252 274.458 63.776 275.858 63.72 277.622H59.1C59.184 274.43 60.136 271.994 61.956 270.314C63.804 268.606 66.142 267.752 68.97 267.752C72.022 267.752 74.402 268.592 76.11 270.272C77.846 271.952 78.714 274.192 78.714 276.992C78.714 279.008 78.196 280.954 77.16 282.83C76.152 284.678 74.934 286.344 73.506 287.828C72.106 289.284 70.314 290.978 68.13 292.91L66.24 294.59H79.554V298.58H59.142V295.094L62.166 292.49ZM83.7602 283.292C83.7602 278.448 84.5722 274.668 86.1962 271.952C87.8482 269.208 90.6762 267.836 94.6802 267.836C98.6842 267.836 101.498 269.208 103.122 271.952C104.774 274.668 105.6 278.448 105.6 283.292C105.6 288.192 104.774 292.028 103.122 294.8C101.498 297.544 98.6842 298.916 94.6802 298.916C90.6762 298.916 87.8482 297.544 86.1962 294.8C84.5722 292.028 83.7602 288.192 83.7602 283.292ZM100.896 283.292C100.896 281.024 100.742 279.106 100.434 277.538C100.154 275.97 99.5662 274.696 98.6702 273.716C97.7742 272.708 96.4442 272.204 94.6802 272.204C92.9162 272.204 91.5862 272.708 90.6902 273.716C89.7942 274.696 89.1922 275.97 88.8842 277.538C88.6042 279.106 88.4642 281.024 88.4642 283.292C88.4642 285.644 88.6042 287.618 88.8842 289.214C89.1642 290.81 89.7522 292.098 90.6482 293.078C91.5722 294.058 92.9162 294.548 94.6802 294.548C96.4442 294.548 97.7742 294.058 98.6702 293.078C99.5942 292.098 100.196 290.81 100.476 289.214C100.756 287.618 100.896 285.644 100.896 283.292ZM110.666 283.292C110.666 278.448 111.478 274.668 113.102 271.952C114.754 269.208 117.582 267.836 121.586 267.836C125.59 267.836 128.404 269.208 130.028 271.952C131.68 274.668 132.506 278.448 132.506 283.292C132.506 288.192 131.68 292.028 130.028 294.8C128.404 297.544 125.59 298.916 121.586 298.916C117.582 298.916 114.754 297.544 113.102 294.8C111.478 292.028 110.666 288.192 110.666 283.292ZM127.802 283.292C127.802 281.024 127.648 279.106 127.34 277.538C127.06 275.97 126.472 274.696 125.576 273.716C124.68 272.708 123.35 272.204 121.586 272.204C119.822 272.204 118.492 272.708 117.596 273.716C116.7 274.696 116.098 275.97 115.79 277.538C115.51 279.106 115.37 281.024 115.37 283.292C115.37 285.644 115.51 287.618 115.79 289.214C116.07 290.81 116.658 292.098 117.554 293.078C118.478 294.058 119.822 294.548 121.586 294.548C123.35 294.548 124.68 294.058 125.576 293.078C126.5 292.098 127.102 290.81 127.382 289.214C127.662 287.618 127.802 285.644 127.802 283.292Z" fill="white"/>
<path d="M230.864 159.7C230.864 158.464 231.134 157.36 231.674 156.388C232.214 155.404 232.952 154.642 233.888 154.102C234.824 153.55 235.868 153.274 237.02 153.274C238.424 153.274 239.624 153.61 240.62 154.282C241.628 154.942 242.36 155.878 242.816 157.09H241.34C240.98 156.238 240.428 155.572 239.684 155.092C238.952 154.612 238.064 154.372 237.02 154.372C236.096 154.372 235.262 154.588 234.518 155.02C233.786 155.452 233.21 156.076 232.79 156.892C232.37 157.696 232.16 158.632 232.16 159.7C232.16 160.768 232.37 161.704 232.79 162.508C233.21 163.312 233.786 163.93 234.518 164.362C235.262 164.794 236.096 165.01 237.02 165.01C238.064 165.01 238.952 164.776 239.684 164.308C240.428 163.828 240.98 163.168 241.34 162.328H242.816C242.36 163.528 241.628 164.458 240.62 165.118C239.612 165.778 238.412 166.108 237.02 166.108C235.868 166.108 234.824 165.838 233.888 165.298C232.952 164.746 232.214 163.984 231.674 163.012C231.134 162.04 230.864 160.936 230.864 159.7ZM249.629 166.144C248.705 166.144 247.871 165.94 247.127 165.532C246.395 165.112 245.813 164.524 245.381 163.768C244.961 163 244.751 162.106 244.751 161.086C244.751 160.066 244.967 159.178 245.399 158.422C245.831 157.654 246.419 157.066 247.163 156.658C247.907 156.238 248.741 156.028 249.665 156.028C250.589 156.028 251.423 156.238 252.167 156.658C252.923 157.066 253.511 157.654 253.931 158.422C254.363 159.178 254.579 160.066 254.579 161.086C254.579 162.094 254.363 162.982 253.931 163.75C253.499 164.518 252.905 165.112 252.149 165.532C251.393 165.94 250.553 166.144 249.629 166.144ZM249.629 165.046C250.277 165.046 250.877 164.902 251.429 164.614C251.981 164.314 252.425 163.87 252.761 163.282C253.109 162.682 253.283 161.95 253.283 161.086C253.283 160.222 253.115 159.496 252.779 158.908C252.443 158.308 251.999 157.864 251.447 157.576C250.895 157.276 250.295 157.126 249.647 157.126C248.999 157.126 248.399 157.276 247.847 157.576C247.295 157.864 246.851 158.308 246.515 158.908C246.191 159.496 246.029 160.222 246.029 161.086C246.029 161.95 246.191 162.682 246.515 163.282C246.851 163.87 247.289 164.314 247.829 164.614C248.381 164.902 248.981 165.046 249.629 165.046ZM265.39 156.172V166H264.13V164.272C263.842 164.884 263.398 165.352 262.798 165.676C262.198 166 261.526 166.162 260.782 166.162C259.606 166.162 258.646 165.802 257.902 165.082C257.158 164.35 256.786 163.294 256.786 161.914V156.172H258.028V161.77C258.028 162.838 258.292 163.654 258.82 164.218C259.36 164.782 260.092 165.064 261.016 165.064C261.964 165.064 262.72 164.764 263.284 164.164C263.848 163.564 264.13 162.682 264.13 161.518V156.172H265.39ZM272.874 155.992C274.05 155.992 275.01 156.358 275.754 157.09C276.498 157.81 276.87 158.86 276.87 160.24V166H275.628V160.384C275.628 159.316 275.358 158.5 274.818 157.936C274.29 157.372 273.564 157.09 272.64 157.09C271.692 157.09 270.936 157.39 270.372 157.99C269.808 158.59 269.526 159.472 269.526 160.636V166H268.266V156.172H269.526V157.846C269.838 157.246 270.288 156.79 270.876 156.478C271.464 156.154 272.13 155.992 272.874 155.992ZM281.295 157.234V163.336C281.295 163.936 281.409 164.35 281.637 164.578C281.865 164.806 282.267 164.92 282.843 164.92H283.995V166H282.645C281.757 166 281.097 165.796 280.665 165.388C280.233 164.968 280.017 164.284 280.017 163.336V157.234H278.649V156.172H280.017V153.706H281.295V156.172H283.995V157.234H281.295ZM287.333 157.918C287.609 157.306 288.029 156.832 288.593 156.496C289.169 156.16 289.871 155.992 290.699 155.992V157.306H290.357C289.445 157.306 288.713 157.552 288.161 158.044C287.609 158.536 287.333 159.358 287.333 160.51V166H286.073V156.172H287.333V157.918ZM293.224 154.318C292.972 154.318 292.756 154.228 292.576 154.048C292.396 153.868 292.306 153.646 292.306 153.382C292.306 153.118 292.396 152.902 292.576 152.734C292.756 152.554 292.972 152.464 293.224 152.464C293.476 152.464 293.692 152.554 293.872 152.734C294.052 152.902 294.142 153.118 294.142 153.382C294.142 153.646 294.052 153.868 293.872 154.048C293.692 154.228 293.476 154.318 293.224 154.318ZM293.854 156.172V166H292.594V156.172H293.854ZM305.6 160.582C305.6 161.014 305.588 161.344 305.564 161.572H297.41C297.446 162.316 297.626 162.952 297.95 163.48C298.274 164.008 298.7 164.41 299.228 164.686C299.756 164.95 300.332 165.082 300.956 165.082C301.772 165.082 302.456 164.884 303.008 164.488C303.572 164.092 303.944 163.558 304.124 162.886H305.456C305.216 163.846 304.7 164.632 303.908 165.244C303.128 165.844 302.144 166.144 300.956 166.144C300.032 166.144 299.204 165.94 298.472 165.532C297.74 165.112 297.164 164.524 296.744 163.768C296.336 163 296.132 162.106 296.132 161.086C296.132 160.066 296.336 159.172 296.744 158.404C297.152 157.636 297.722 157.048 298.454 156.64C299.186 156.232 300.02 156.028 300.956 156.028C301.892 156.028 302.708 156.232 303.404 156.64C304.112 157.048 304.652 157.6 305.024 158.296C305.408 158.98 305.6 159.742 305.6 160.582ZM304.322 160.546C304.334 159.814 304.184 159.19 303.872 158.674C303.572 158.158 303.158 157.768 302.63 157.504C302.102 157.24 301.526 157.108 300.902 157.108C299.966 157.108 299.168 157.408 298.508 158.008C297.848 158.608 297.482 159.454 297.41 160.546H304.322ZM311.289 166.144C310.161 166.144 309.237 165.886 308.517 165.37C307.809 164.842 307.413 164.128 307.329 163.228H308.625C308.685 163.78 308.943 164.23 309.399 164.578C309.867 164.914 310.491 165.082 311.271 165.082C311.955 165.082 312.489 164.92 312.873 164.596C313.269 164.272 313.467 163.87 313.467 163.39C313.467 163.054 313.359 162.778 313.143 162.562C312.927 162.346 312.651 162.178 312.315 162.058C311.991 161.926 311.547 161.788 310.983 161.644C310.251 161.452 309.657 161.26 309.201 161.068C308.745 160.876 308.355 160.594 308.031 160.222C307.719 159.838 307.563 159.328 307.563 158.692C307.563 158.212 307.707 157.768 307.995 157.36C308.283 156.952 308.691 156.628 309.219 156.388C309.747 156.148 310.347 156.028 311.019 156.028C312.075 156.028 312.927 156.298 313.575 156.838C314.223 157.366 314.571 158.098 314.619 159.034H313.359C313.323 158.458 313.095 157.996 312.675 157.648C312.267 157.288 311.703 157.108 310.983 157.108C310.347 157.108 309.831 157.258 309.435 157.558C309.039 157.858 308.841 158.23 308.841 158.674C308.841 159.058 308.955 159.376 309.183 159.628C309.423 159.868 309.717 160.06 310.065 160.204C310.413 160.336 310.881 160.486 311.469 160.654C312.177 160.846 312.741 161.032 313.161 161.212C313.581 161.392 313.941 161.656 314.241 162.004C314.541 162.352 314.697 162.814 314.709 163.39C314.709 163.918 314.565 164.392 314.277 164.812C313.989 165.22 313.587 165.544 313.071 165.784C312.555 166.024 311.961 166.144 311.289 166.144Z" fill="white"/>
<path d="M66.486 317.036C66.486 318.116 66.132 318.986 65.424 319.646C64.716 320.306 63.654 320.636 62.238 320.636H59.7V326H58.44V313.418H62.238C63.642 313.418 64.698 313.748 65.406 314.408C66.126 315.068 66.486 315.944 66.486 317.036ZM62.238 319.556C64.206 319.556 65.19 318.716 65.19 317.036C65.19 316.196 64.956 315.56 64.488 315.128C64.02 314.696 63.27 314.48 62.238 314.48H59.7V319.556H62.238ZM69.8602 317.918C70.1362 317.306 70.5562 316.832 71.1202 316.496C71.6962 316.16 72.3982 315.992 73.2262 315.992V317.306H72.8842C71.9722 317.306 71.2402 317.552 70.6882 318.044C70.1362 318.536 69.8602 319.358 69.8602 320.51V326H68.6002V316.172H69.8602V317.918ZM79.4236 326.144C78.4996 326.144 77.6656 325.94 76.9216 325.532C76.1896 325.112 75.6076 324.524 75.1756 323.768C74.7556 323 74.5456 322.106 74.5456 321.086C74.5456 320.066 74.7616 319.178 75.1936 318.422C75.6256 317.654 76.2136 317.066 76.9576 316.658C77.7016 316.238 78.5356 316.028 79.4596 316.028C80.3836 316.028 81.2176 316.238 81.9616 316.658C82.7176 317.066 83.3056 317.654 83.7256 318.422C84.1576 319.178 84.3736 320.066 84.3736 321.086C84.3736 322.094 84.1576 322.982 83.7256 323.75C83.2936 324.518 82.6996 325.112 81.9436 325.532C81.1876 325.94 80.3476 326.144 79.4236 326.144ZM79.4236 325.046C80.0716 325.046 80.6716 324.902 81.2236 324.614C81.7756 324.314 82.2196 323.87 82.5556 323.282C82.9036 322.682 83.0776 321.95 83.0776 321.086C83.0776 320.222 82.9096 319.496 82.5736 318.908C82.2376 318.308 81.7936 317.864 81.2416 317.576C80.6896 317.276 80.0896 317.126 79.4416 317.126C78.7936 317.126 78.1936 317.276 77.6416 317.576C77.0896 317.864 76.6456 318.308 76.3096 318.908C75.9856 319.496 75.8236 320.222 75.8236 321.086C75.8236 321.95 75.9856 322.682 76.3096 323.282C76.6456 323.87 77.0836 324.314 77.6236 324.614C78.1756 324.902 78.7756 325.046 79.4236 325.046ZM87.3905 314.318C87.1385 314.318 86.9225 314.228 86.7425 314.048C86.5625 313.868 86.4725 313.646 86.4725 313.382C86.4725 313.118 86.5625 312.902 86.7425 312.734C86.9225 312.554 87.1385 312.464 87.3905 312.464C87.6425 312.464 87.8525 312.554 88.0205 312.734C88.2005 312.902 88.2905 313.118 88.2905 313.382C88.2905 313.646 88.2005 313.868 88.0205 314.048C87.8525 314.228 87.6425 314.318 87.3905 314.318ZM88.0025 328.322C88.0025 329.114 87.8045 329.696 87.4085 330.068C87.0125 330.452 86.4185 330.644 85.6265 330.644H84.7445V329.564H85.4285C85.8965 329.564 86.2325 329.462 86.4365 329.258C86.6405 329.066 86.7425 328.736 86.7425 328.268V316.172H88.0025V328.322ZM99.7812 320.582C99.7812 321.014 99.7692 321.344 99.7452 321.572H91.5912C91.6272 322.316 91.8072 322.952 92.1312 323.48C92.4552 324.008 92.8812 324.41 93.4092 324.686C93.9372 324.95 94.5132 325.082 95.1372 325.082C95.9532 325.082 96.6372 324.884 97.1892 324.488C97.7532 324.092 98.1252 323.558 98.3052 322.886H99.6372C99.3972 323.846 98.8812 324.632 98.0892 325.244C97.3092 325.844 96.3252 326.144 95.1372 326.144C94.2132 326.144 93.3852 325.94 92.6532 325.532C91.9212 325.112 91.3452 324.524 90.9252 323.768C90.5172 323 90.3132 322.106 90.3132 321.086C90.3132 320.066 90.5172 319.172 90.9252 318.404C91.3332 317.636 91.9032 317.048 92.6352 316.64C93.3672 316.232 94.2012 316.028 95.1372 316.028C96.0732 316.028 96.8892 316.232 97.5852 316.64C98.2932 317.048 98.8332 317.6 99.2052 318.296C99.5892 318.98 99.7812 319.742 99.7812 320.582ZM98.5032 320.546C98.5152 319.814 98.3652 319.19 98.0532 318.674C97.7532 318.158 97.3392 317.768 96.8112 317.504C96.2832 317.24 95.7072 317.108 95.0832 317.108C94.1472 317.108 93.3492 317.408 92.6892 318.008C92.0292 318.608 91.6632 319.454 91.5912 320.546H98.5032ZM101.51 321.086C101.51 320.066 101.714 319.178 102.122 318.422C102.53 317.654 103.094 317.066 103.814 316.658C104.534 316.238 105.356 316.028 106.28 316.028C107.492 316.028 108.488 316.328 109.268 316.928C110.06 317.528 110.57 318.344 110.798 319.376H109.448C109.28 318.668 108.914 318.116 108.35 317.72C107.798 317.312 107.108 317.108 106.28 317.108C105.62 317.108 105.026 317.258 104.498 317.558C103.97 317.858 103.55 318.308 103.238 318.908C102.938 319.496 102.788 320.222 102.788 321.086C102.788 321.95 102.938 322.682 103.238 323.282C103.55 323.882 103.97 324.332 104.498 324.632C105.026 324.932 105.62 325.082 106.28 325.082C107.108 325.082 107.798 324.884 108.35 324.488C108.914 324.08 109.28 323.516 109.448 322.796H110.798C110.57 323.804 110.06 324.614 109.268 325.226C108.476 325.838 107.48 326.144 106.28 326.144C105.356 326.144 104.534 325.94 103.814 325.532C103.094 325.112 102.53 324.524 102.122 323.768C101.714 323 101.51 322.106 101.51 321.086ZM114.764 317.234V323.336C114.764 323.936 114.878 324.35 115.106 324.578C115.334 324.806 115.736 324.92 116.312 324.92H117.464V326H116.114C115.226 326 114.566 325.796 114.134 325.388C113.702 324.968 113.486 324.284 113.486 323.336V317.234H112.118V316.172H113.486V313.706H114.764V316.172H117.464V317.234H114.764ZM122.926 326.144C121.798 326.144 120.874 325.886 120.154 325.37C119.446 324.842 119.05 324.128 118.966 323.228H120.262C120.322 323.78 120.58 324.23 121.036 324.578C121.504 324.914 122.128 325.082 122.908 325.082C123.592 325.082 124.126 324.92 124.51 324.596C124.906 324.272 125.104 323.87 125.104 323.39C125.104 323.054 124.996 322.778 124.78 322.562C124.564 322.346 124.288 322.178 123.952 322.058C123.628 321.926 123.184 321.788 122.62 321.644C121.888 321.452 121.294 321.26 120.838 321.068C120.382 320.876 119.992 320.594 119.668 320.222C119.356 319.838 119.2 319.328 119.2 318.692C119.2 318.212 119.344 317.768 119.632 317.36C119.92 316.952 120.328 316.628 120.856 316.388C121.384 316.148 121.984 316.028 122.656 316.028C123.712 316.028 124.564 316.298 125.212 316.838C125.86 317.366 126.208 318.098 126.256 319.034H124.996C124.96 318.458 124.732 317.996 124.312 317.648C123.904 317.288 123.34 317.108 122.62 317.108C121.984 317.108 121.468 317.258 121.072 317.558C120.676 317.858 120.478 318.23 120.478 318.674C120.478 319.058 120.592 319.376 120.82 319.628C121.06 319.868 121.354 320.06 121.702 320.204C122.05 320.336 122.518 320.486 123.106 320.654C123.814 320.846 124.378 321.032 124.798 321.212C125.218 321.392 125.578 321.656 125.878 322.004C126.178 322.352 126.334 322.814 126.346 323.39C126.346 323.918 126.202 324.392 125.914 324.812C125.626 325.22 125.224 325.544 124.708 325.784C124.192 326.024 123.598 326.144 122.926 326.144Z" fill="white"/>
<circle cx="218" cy="218" r="217.5" stroke="#E6E6E2"/>
<circle cx="255" cy="161" r="148.5" stroke="#E6E6E2"/>
<circle cx="194.5" cy="25.5" r="11.5" fill="#DC3635"/>
</svg>
