<svg width="35" height="35" viewBox="0 0 35 35" fill="none" xmlns="http://www.w3.org/2000/svg">
<path d="M8.74935 11.6663C8.74935 8.44342 11.3598 5.83301 14.5827 5.83301C17.8056 5.83301 20.416 8.44342 20.416 11.6663C20.416 14.8893 17.8056 17.4997 14.5827 17.4997C11.3598 17.4997 8.74935 14.8893 8.74935 11.6663ZM13.3285 28.8018L12.9056 27.708L13.3285 26.6143C14.3493 24.0622 16.1577 22.0788 18.3889 20.7372C17.1931 20.533 15.9243 20.4163 14.5827 20.4163C8.13685 20.4163 2.91602 23.0268 2.91602 26.2497V29.1663H13.5181C13.4598 29.0351 13.3868 28.9184 13.3285 28.8018ZM24.791 26.2497C23.9743 26.2497 23.3327 26.8913 23.3327 27.708C23.3327 28.5247 23.9743 29.1663 24.791 29.1663C25.6077 29.1663 26.2493 28.5247 26.2493 27.708C26.2493 26.8913 25.6077 26.2497 24.791 26.2497ZM33.541 27.708C32.1702 31.1205 28.7723 33.5413 24.791 33.5413C20.8098 33.5413 17.4118 31.1205 16.041 27.708C17.4118 24.2955 20.8098 21.8747 24.791 21.8747C28.7723 21.8747 32.1702 24.2955 33.541 27.708ZM28.4368 27.708C28.4368 26.7411 28.0527 25.8137 27.369 25.13C26.6853 24.4463 25.7579 24.0622 24.791 24.0622C23.8241 24.0622 22.8967 24.4463 22.213 25.13C21.5293 25.8137 21.1452 26.7411 21.1452 27.708C21.1452 28.6749 21.5293 29.6023 22.213 30.286C22.8967 30.9697 23.8241 31.3538 24.791 31.3538C25.7579 31.3538 26.6853 30.9697 27.369 30.286C28.0527 29.6023 28.4368 28.6749 28.4368 27.708Z" fill="#AAAAAA"/>
</svg>
