<svg width="28" height="28" viewBox="0 0 28 28" fill="none" xmlns="http://www.w3.org/2000/svg">
<path d="M12.8327 23.333V25.6663H3.49935C2.21602 25.6663 1.16602 24.6163 1.16602 23.333V4.66634C1.16602 3.38301 2.21602 2.33301 3.49935 2.33301H24.4993C25.7827 2.33301 26.8327 3.38301 26.8327 4.66634V14.1163L26.5993 13.883C26.016 13.2997 25.316 12.9497 24.4993 12.9497V6.99967H3.49935V23.333H12.8327ZM24.966 15.5163L26.4827 17.033C26.716 17.2663 26.716 17.733 26.4827 17.9663L25.316 19.133L22.866 16.683L24.0327 15.5163C24.1493 15.3997 24.266 15.283 24.4993 15.283C24.7327 15.283 24.8493 15.3997 24.966 15.5163ZM24.616 19.7163L17.616 26.833H15.166V24.383L22.2827 17.2663L24.616 19.7163Z" fill="#AAAAAA"/>
</svg>
