<svg width="31" height="24" viewBox="0 0 31 24" fill="none" xmlns="http://www.w3.org/2000/svg">
<g clip-path="url(#clip0_1_128)">
<path d="M8.67429 2.25H15.4629C15.6703 2.25 15.84 2.41875 15.84 2.625V4.5H8.29714V2.625C8.29714 2.41875 8.46686 2.25 8.67429 2.25ZM6.03429 2.625V4.5H3.01714C1.353 4.5 0 5.84531 0 7.5V12H16.9809C18.5036 10.1672 20.8041 9 23.3829 9C23.6374 9 23.8873 9.00937 24.1371 9.03281V7.5C24.1371 5.84531 22.7841 4.5 21.12 4.5H18.1029V2.625C18.1029 1.17656 16.9196 0 15.4629 0H8.67429C7.21757 0 6.03429 1.17656 6.03429 2.625ZM15.0857 16.5H10.56C9.72557 16.5 9.05143 15.8297 9.05143 15V13.5H0V19.5C0 21.1547 1.353 22.5 3.01714 22.5H16.9809C15.7976 21.075 15.0857 19.2422 15.0857 17.25C15.0857 16.9969 15.0951 16.7484 15.1187 16.5H15.0857ZM30.1714 17.25C30.1714 13.5234 27.1307 10.5 23.3829 10.5C19.635 10.5 16.5943 13.5234 16.5943 17.25C16.5943 20.9766 19.635 24 23.3829 24C27.1307 24 30.1714 20.9766 30.1714 17.25ZM23.3829 13.5C23.7977 13.5 24.1371 13.8375 24.1371 14.25V16.5H25.6457C26.0606 16.5 26.4 16.8375 26.4 17.25C26.4 17.6625 26.0606 18 25.6457 18H23.3829C22.968 18 22.6286 17.6625 22.6286 17.25V14.25C22.6286 13.8375 22.968 13.5 23.3829 13.5Z" fill="#666666"/>
</g>
<defs>
<clipPath id="clip0_1_128">
<rect width="30.1714" height="24" fill="white"/>
</clipPath>
</defs>
</svg>
