<svg width="20" height="20" viewBox="0 0 20 20" fill="none" xmlns="http://www.w3.org/2000/svg">
<path d="M13.1507 10.6002C13.2679 10.4831 13.3338 10.3242 13.334 10.1585V9.84187C13.3321 9.67652 13.2664 9.5183 13.1507 9.4002L8.86732 5.1252C8.78908 5.04632 8.68258 5.00195 8.57148 5.00195C8.46039 5.00195 8.35389 5.04632 8.27565 5.1252L7.68398 5.71687C7.6056 5.79367 7.56142 5.89879 7.56142 6.00854C7.56142 6.11828 7.6056 6.2234 7.68398 6.3002L11.3923 10.0002L7.68398 13.7002C7.6051 13.7784 7.56074 13.8849 7.56074 13.996C7.56074 14.1071 7.6051 14.2136 7.68398 14.2919L8.27565 14.8752C8.35389 14.9541 8.46039 14.9985 8.57148 14.9985C8.68258 14.9985 8.78908 14.9541 8.86732 14.8752L13.1507 10.6002Z" fill="#BCBCBC"/>
</svg>
