<svg width="34" height="34" viewBox="0 0 34 34" fill="none" xmlns="http://www.w3.org/2000/svg">
<rect x="0.5" y="0.5" width="33" height="33" fill="white"/>
<path fill-rule="evenodd" clip-rule="evenodd" d="M17.0007 17.6663C17.645 17.6663 18.1673 17.144 18.1673 16.4997C18.1673 15.8553 17.645 15.333 17.0007 15.333C16.3563 15.333 15.834 15.8553 15.834 16.4997C15.834 17.144 16.3563 17.6663 17.0007 17.6663Z" stroke="#666666" stroke-width="1.16667" stroke-linecap="round" stroke-linejoin="round"/>
<path fill-rule="evenodd" clip-rule="evenodd" d="M21.6667 17.6663C22.311 17.6663 22.8333 17.144 22.8333 16.4997C22.8333 15.8553 22.311 15.333 21.6667 15.333C21.0223 15.333 20.5 15.8553 20.5 16.4997C20.5 17.144 21.0223 17.6663 21.6667 17.6663Z" stroke="#666666" stroke-width="1.16667" stroke-linecap="round" stroke-linejoin="round"/>
<path fill-rule="evenodd" clip-rule="evenodd" d="M12.3327 17.6663C12.977 17.6663 13.4993 17.144 13.4993 16.4997C13.4993 15.8553 12.977 15.333 12.3327 15.333C11.6884 15.333 11.166 15.8553 11.166 16.4997C11.166 17.144 11.6884 17.6663 12.3327 17.6663Z" stroke="#666666" stroke-width="1.16667" stroke-linecap="round" stroke-linejoin="round"/>
<rect x="0.5" y="0.5" width="33" height="33" stroke="#ECE9F1"/>
</svg>
