<svg width="29" height="29" viewBox="0 0 29 29" fill="none" xmlns="http://www.w3.org/2000/svg">
<path fill-rule="evenodd" clip-rule="evenodd" d="M14.4999 1.8125C14.7403 1.8125 14.9708 1.90798 15.1407 2.07793C15.3107 2.24789 15.4062 2.4784 15.4062 2.71875V24.0936L21.1083 18.3896C21.2785 18.2195 21.5093 18.1239 21.7499 18.1239C21.9906 18.1239 22.2214 18.2195 22.3915 18.3896C22.5617 18.5598 22.6573 18.7906 22.6573 19.0313C22.6573 19.2719 22.5617 19.5027 22.3915 19.6729L15.1415 26.9229C15.0574 27.0073 14.9574 27.0742 14.8473 27.1199C14.7372 27.1656 14.6191 27.1891 14.4999 27.1891C14.3807 27.1891 14.2627 27.1656 14.1526 27.1199C14.0425 27.0742 13.9425 27.0073 13.8583 26.9229L6.6083 19.6729C6.43813 19.5027 6.34253 19.2719 6.34253 19.0313C6.34253 18.7906 6.43813 18.5598 6.6083 18.3896C6.77847 18.2195 7.00927 18.1239 7.24992 18.1239C7.49058 18.1239 7.72138 18.2195 7.89155 18.3896L13.5937 24.0936V2.71875C13.5937 2.4784 13.6892 2.24789 13.8591 2.07793C14.0291 1.90798 14.2596 1.8125 14.4999 1.8125Z" fill="white"/>
</svg>
