<svg width="19" height="19" viewBox="0 0 19 19" fill="none" xmlns="http://www.w3.org/2000/svg">
<path d="M9.49935 3.5625C5.54102 3.5625 2.1606 6.02458 0.791016 9.5C2.1606 12.9754 5.54102 15.4375 9.49935 15.4375C13.4577 15.4375 16.8381 12.9754 18.2077 9.5C16.8381 6.02458 13.4577 3.5625 9.49935 3.5625ZM9.49935 13.4583C7.31435 13.4583 5.54102 11.685 5.54102 9.5C5.54102 7.315 7.31435 5.54167 9.49935 5.54167C11.6844 5.54167 13.4577 7.315 13.4577 9.5C13.4577 11.685 11.6844 13.4583 9.49935 13.4583ZM9.49935 7.125C8.18518 7.125 7.12435 8.18583 7.12435 9.5C7.12435 10.8142 8.18518 11.875 9.49935 11.875C10.8135 11.875 11.8744 10.8142 11.8744 9.5C11.8744 8.18583 10.8135 7.125 9.49935 7.125Z" fill="#AAAAAA"/>
</svg>
