<svg width="58" height="58" viewBox="0 0 58 58" fill="none" xmlns="http://www.w3.org/2000/svg">
<circle cx="28.6084" cy="28.6084" r="28.1084" stroke="#131415"/>
<path d="M35.7027 15.9722C35.7027 15.7784 35.6257 15.5926 35.4886 15.4555C35.3516 15.3185 35.1657 15.2415 34.9719 15.2415H31.3181C29.4783 15.1498 27.6769 15.7901 26.3076 17.0225C24.9384 18.2548 24.1125 19.979 24.0105 21.8183V25.7644H20.3567C20.1629 25.7644 19.9771 25.8414 19.84 25.9785C19.703 26.1155 19.626 26.3014 19.626 26.4952V30.2951C19.626 30.4889 19.703 30.6748 19.84 30.8119C19.9771 30.9489 20.1629 31.0259 20.3567 31.0259H24.0105V40.8181C24.0105 41.0119 24.0875 41.1977 24.2246 41.3348C24.3616 41.4718 24.5475 41.5488 24.7413 41.5488H29.1258C29.3197 41.5488 29.5055 41.4718 29.6426 41.3348C29.7796 41.1977 29.8566 41.0119 29.8566 40.8181V31.0259H33.6858C33.8483 31.0282 34.0069 30.9763 34.1366 30.8784C34.2663 30.7804 34.3597 30.6421 34.4019 30.4851L35.4542 26.6852C35.4833 26.5772 35.4872 26.464 35.4656 26.3543C35.4441 26.2446 35.3976 26.1412 35.3299 26.0523C35.2621 25.9634 35.1748 25.8911 35.0748 25.8412C34.9747 25.7913 34.8645 25.765 34.7527 25.7644H29.8566V21.8183C29.893 21.4566 30.0628 21.1213 30.3331 20.8781C30.6033 20.6349 30.9545 20.5011 31.3181 20.503H34.9719C35.1657 20.503 35.3516 20.426 35.4886 20.2889C35.6257 20.1519 35.7027 19.966 35.7027 19.7722V15.9722Z" fill="#131415"/>
</svg>
