<svg width="35" height="35" viewBox="0 0 35 35" fill="none" xmlns="http://www.w3.org/2000/svg">
<circle cx="17.3668" cy="17.3668" r="16.8668" stroke="white"/>
<path d="M21.6735 9.696C21.6735 9.57835 21.6267 9.46552 21.5435 9.38232C21.4603 9.29913 21.3475 9.25239 21.2299 9.25239H19.0118C17.8949 9.19676 16.8014 9.58545 15.9702 10.3335C15.139 11.0816 14.6376 12.1283 14.5757 13.2449V15.6404H12.3577C12.24 15.6404 12.1272 15.6871 12.044 15.7703C11.9608 15.8535 11.9141 15.9663 11.9141 16.084V18.3907C11.9141 18.5084 11.9608 18.6212 12.044 18.7044C12.1272 18.7876 12.24 18.8343 12.3577 18.8343H14.5757V24.7787C14.5757 24.8964 14.6225 25.0092 14.7056 25.0924C14.7888 25.1756 14.9017 25.2223 15.0193 25.2223H17.681C17.7986 25.2223 17.9115 25.1756 17.9947 25.0924C18.0779 25.0092 18.1246 24.8964 18.1246 24.7787V18.8343H20.4491C20.5477 18.8358 20.6441 18.8043 20.7228 18.7448C20.8015 18.6853 20.8582 18.6013 20.8838 18.5061L21.5226 16.1993C21.5403 16.1338 21.5427 16.065 21.5296 15.9984C21.5165 15.9318 21.4883 15.8691 21.4471 15.8151C21.406 15.7611 21.353 15.7173 21.2923 15.687C21.2315 15.6567 21.1646 15.6407 21.0968 15.6404H18.1246V13.2449C18.1467 13.0253 18.2498 12.8218 18.4138 12.6741C18.5779 12.5265 18.7911 12.4453 19.0118 12.4464H21.2299C21.3475 12.4464 21.4603 12.3996 21.5435 12.3164C21.6267 12.2333 21.6735 12.1204 21.6735 12.0028V9.696Z" fill="white"/>
</svg>
