<svg width="32" height="32" viewBox="0 0 32 32" fill="none" xmlns="http://www.w3.org/2000/svg">
<path d="M29.3327 2.66643C29.3327 2.66643 19.146 2.1731 11.1193 13.1731C4.95935 21.6131 2.66602 29.3331 2.66602 29.3331L5.25268 27.9998C7.17268 24.6664 8.17268 23.2931 10.0527 21.3331C13.426 22.3198 16.946 22.1998 19.9993 18.6664C17.3327 17.9198 15.1993 18.0931 12.0527 18.4131C15.586 15.9998 17.9993 15.4664 21.3327 15.9998L22.666 13.3331C20.266 12.8798 18.666 12.8398 16.2927 13.3864C18.9193 11.5331 20.746 10.4931 23.9993 10.6664L25.6127 8.09309C23.5327 7.94643 22.2793 8.17309 19.8927 8.75976C22.0393 6.81309 23.9993 5.9331 26.8527 5.75976C26.8527 5.75976 28.2527 3.23976 29.3327 2.66643Z" fill="white"/>
</svg>
