<svg width="18" height="16" viewBox="0 0 18 16" fill="none" xmlns="http://www.w3.org/2000/svg">
<path d="M3 7C2.3775 7 1.875 7.44667 1.875 8C1.875 8.55333 2.3775 9 3 9C3.6225 9 4.125 8.55333 4.125 8C4.125 7.44667 3.6225 7 3 7ZM3 3C2.3775 3 1.875 3.44667 1.875 4C1.875 4.55333 2.3775 5 3 5C3.6225 5 4.125 4.55333 4.125 4C4.125 3.44667 3.6225 3 3 3ZM3 11C2.3775 11 1.875 11.4533 1.875 12C1.875 12.5467 2.385 13 3 13C3.615 13 4.125 12.5467 4.125 12C4.125 11.4533 3.6225 11 3 11ZM5.25 12.6667H15.75V11.3333H5.25V12.6667ZM5.25 8.66667H15.75V7.33333H5.25V8.66667ZM5.25 3.33333V4.66667H15.75V3.33333H5.25Z" fill="#474343"/>
</svg>
