<svg width="20" height="20" viewBox="0 0 20 20" fill="none" xmlns="http://www.w3.org/2000/svg">
<path d="M14.3756 6.66683C14.3756 4.7835 12.9173 3.3335 11.0423 3.3335H5.83398V15.0002H11.7007C13.4423 15.0002 14.7923 13.5835 14.7923 11.8418C14.7923 10.5752 14.0757 9.49183 13.0006 8.99183C13.809 8.4335 14.3756 7.51683 14.3756 6.66683ZM8.33398 5.41683H10.834C11.5257 5.41683 12.084 5.97516 12.084 6.66683C12.084 7.3585 11.5257 7.91683 10.834 7.91683H8.33398V5.41683ZM11.2506 12.9168H8.33398V10.4168H11.2506C11.9423 10.4168 12.5006 10.9752 12.5006 11.6668C12.5006 12.3585 11.9423 12.9168 11.2506 12.9168Z" fill="#434445"/>
</svg>
