<svg width="26" height="26" viewBox="0 0 26 26" fill="none" xmlns="http://www.w3.org/2000/svg">
<path d="M9.64593 17.875H13.5654C13.5499 18.0551 13.5419 18.2358 13.5416 18.4167C13.5416 19.7177 14.0367 20.9744 14.9196 22.1953C14.3346 23.2342 13.6662 23.8322 12.9999 23.8322C11.7032 23.8322 10.3999 21.5637 9.70877 18.1946L9.64593 17.8761V17.875ZM9.39677 16.25H13.9468C14.4797 14.89 15.4921 13.7721 16.7927 13.1072V13.0011C16.7927 12.2579 16.7645 11.5332 16.7104 10.8344H9.28952L9.25377 11.3631C9.15963 12.9931 9.20748 14.6283 9.39677 16.25ZM19.4999 12.4583C20.2945 12.4572 21.0813 12.6156 21.8135 12.9241C22.5458 13.2327 23.2087 13.6851 23.7629 14.2545C23.8948 13.1136 23.8461 11.9591 23.6188 10.8333H18.3429L18.3841 11.5451C18.4004 11.8787 18.4101 12.2167 18.4155 12.5569C18.7665 12.4919 19.1305 12.4583 19.4999 12.4583ZM3.32143 17.8761H7.98627C8.3806 20.1316 9.05118 22.0512 9.9276 23.3935C7.17326 22.576 4.85484 20.7009 3.4796 18.1783L3.32143 17.8761ZM2.38218 10.8344H7.65802C7.54468 12.429 7.55664 14.03 7.69377 15.6227L7.75552 16.2511H2.6606C2.11184 14.498 2.01569 12.6346 2.3811 10.8344H2.38218ZM16.1893 2.79174L16.0723 2.60757C17.6825 3.08549 19.1599 3.93029 20.3885 5.07561C21.6171 6.22093 22.5634 7.63556 23.1529 9.20832H18.1804C17.8381 6.59099 17.1437 4.34199 16.1893 2.79174ZM9.79543 2.64766L9.9276 2.60757C8.97318 4.07007 8.2636 6.21399 7.8866 8.73166L7.81943 9.20832H2.8491C3.43029 7.65734 4.35843 6.25979 5.56255 5.12251C6.76668 3.98523 8.21491 3.13834 9.79652 2.64657L9.79543 2.64766ZM12.9999 2.16882C14.4289 2.16882 15.8664 4.92266 16.4818 8.86708L16.5327 9.20832H9.46718C10.0533 5.08191 11.5309 2.16882 12.9999 2.16882ZM24.3749 18.4167C24.3749 17.1237 23.8613 15.8838 22.9471 14.9695C22.0328 14.0553 20.7929 13.5417 19.4999 13.5417C18.207 13.5417 16.967 14.0553 16.0528 14.9695C15.1385 15.8838 14.6249 17.1237 14.6249 18.4167C14.6249 20.4349 16.1633 22.5496 19.1749 24.8083C19.2687 24.8786 19.3827 24.9167 19.4999 24.9167C19.6171 24.9167 19.7312 24.8786 19.8249 24.8083C22.8366 22.5496 24.3749 20.4349 24.3749 18.4167ZM17.8749 18.4167C17.8749 17.9857 18.0461 17.5724 18.3509 17.2676C18.6556 16.9629 19.069 16.7917 19.4999 16.7917C19.9309 16.7917 20.3442 16.9629 20.649 17.2676C20.9537 17.5724 21.1249 17.9857 21.1249 18.4167C21.1249 18.8476 20.9537 19.261 20.649 19.5657C20.3442 19.8705 19.9309 20.0417 19.4999 20.0417C19.069 20.0417 18.6556 19.8705 18.3509 19.5657C18.0461 19.261 17.8749 18.8476 17.8749 18.4167Z" fill="#898989"/>
</svg>
