<svg width="36" height="35" viewBox="0 0 36 35" fill="none" xmlns="http://www.w3.org/2000/svg">
<circle cx="18.0426" cy="17.3668" r="16.8668" stroke="white"/>
<path d="M20.7913 17.2374C20.7913 15.6404 19.5137 14.3628 17.9167 14.3628C16.3197 14.3628 15.0421 15.6404 15.0421 17.2374C15.0421 18.8343 16.3197 20.1119 17.9167 20.1119C19.5137 20.1119 20.7913 18.8343 20.7913 17.2374ZM22.2818 17.2374C22.2818 19.6861 20.3654 21.6025 17.9167 21.6025C15.468 21.6025 13.5516 19.6861 13.5516 17.2374C13.5516 14.7886 15.468 12.8722 17.9167 12.8722C20.3654 12.8722 22.2818 14.7886 22.2818 17.2374ZM23.4529 12.6593C23.4529 13.2981 23.0271 13.724 22.3883 13.724C21.7495 13.724 21.3236 13.2981 21.3236 12.6593C21.3236 12.0205 21.7495 11.5946 22.3883 11.5946C23.0271 11.5946 23.4529 12.127 23.4529 12.6593ZM17.9167 10.2106C16.6391 10.2106 13.9775 10.1041 12.9128 10.53C12.1675 10.8494 11.5287 11.4882 11.3158 12.2334C10.8899 13.2981 10.9964 15.9598 10.9964 17.2374C10.9964 18.5149 10.8899 21.1766 11.3158 22.2413C11.5287 22.9865 12.1675 23.6253 12.9128 23.8383C13.9775 24.2641 16.7456 24.1577 17.9167 24.1577C19.0878 24.1577 21.856 24.2641 22.9206 23.8383C23.6659 23.5189 24.1982 22.9865 24.5176 22.2413C24.9435 21.0701 24.837 18.4085 24.837 17.2374C24.837 16.0662 24.9435 13.2981 24.5176 12.2334C24.3047 11.4882 23.6659 10.8494 22.9206 10.6365C21.856 10.1041 19.1943 10.2106 17.9167 10.2106ZM26.434 17.2374V20.7507C26.434 22.0283 26.0081 23.3059 25.0499 24.3706C24.0917 25.3288 22.8142 25.7546 21.4301 25.7546H14.4033C13.1257 25.7546 11.8481 25.3288 10.7835 24.3706C9.93174 23.4124 9.39941 22.1348 9.39941 20.7507V13.724C9.39941 12.3399 9.93174 11.0623 10.7835 10.1041C11.8481 9.25239 13.1257 8.72006 14.4033 8.72006H21.4301C22.7077 8.72006 23.9853 9.14593 25.0499 10.1041C25.9017 11.0623 26.434 12.3399 26.434 13.724V17.2374Z" fill="white"/>
</svg>
