<svg width="58" height="58" viewBox="0 0 58 58" fill="none" xmlns="http://www.w3.org/2000/svg">
<circle cx="28.7434" cy="28.6084" r="28.1084" stroke="#131415"/>
<path d="M33.2713 28.3951C33.2713 25.7644 31.1667 23.6598 28.5359 23.6598C25.9052 23.6598 23.8006 25.7644 23.8006 28.3951C23.8006 31.0259 25.9052 33.1305 28.5359 33.1305C31.1667 33.1305 33.2713 31.0259 33.2713 28.3951ZM35.7266 28.3951C35.7266 32.4289 32.5697 35.5858 28.5359 35.5858C24.5022 35.5858 21.3453 32.4289 21.3453 28.3951C21.3453 24.3613 24.5022 21.2045 28.5359 21.2045C32.5697 21.2045 35.7266 24.3613 35.7266 28.3951ZM37.6558 20.8537C37.6558 21.906 36.9543 22.6075 35.902 22.6075C34.8497 22.6075 34.1482 21.906 34.1482 20.8537C34.1482 19.8014 34.8497 19.0999 35.902 19.0999C36.9543 19.0999 37.6558 19.9768 37.6558 20.8537ZM28.5359 16.8199C26.4314 16.8199 22.0468 16.6445 20.293 17.3461C19.0653 17.8722 18.013 18.9245 17.6623 20.1522C16.9607 21.906 17.1361 26.2906 17.1361 28.3951C17.1361 30.4997 16.9607 34.8843 17.6623 36.6381C18.013 37.8658 19.0653 38.9181 20.293 39.2688C22.0468 39.9704 26.6067 39.795 28.5359 39.795C30.4651 39.795 35.0251 39.9704 36.7789 39.2688C38.0066 38.7427 38.8835 37.8658 39.4096 36.6381C40.1112 34.7089 39.9358 30.3243 39.9358 28.3951C39.9358 26.4659 40.1112 21.906 39.4096 20.1522C39.0589 18.9245 38.0066 17.8722 36.7789 17.5214C35.0251 16.6445 30.6405 16.8199 28.5359 16.8199ZM42.5665 28.3951V34.1827C42.5665 36.2873 41.865 38.3919 40.2866 40.1457C38.7081 41.7242 36.6035 42.4257 34.3236 42.4257H22.7483C20.6437 42.4257 18.5392 41.7242 16.7853 40.1457C15.3823 38.5673 14.5054 36.4627 14.5054 34.1827V22.6075C14.5054 20.3276 15.3823 18.223 16.7853 16.6445C18.5392 15.2415 20.6437 14.3646 22.7483 14.3646H34.3236C36.4281 14.3646 38.5327 15.0661 40.2866 16.6445C41.6896 18.223 42.5665 20.3276 42.5665 22.6075V28.3951Z" fill="#131415"/>
</svg>
