<svg width="20" height="20" viewBox="0 0 20 20" fill="none" xmlns="http://www.w3.org/2000/svg">
<g clip-path="url(#clip0_43_1523)">
<path d="M13.5658 4.44467H9.49913C9.41436 4.43656 9.32882 4.44626 9.24802 4.47314C9.16721 4.50002 9.09292 4.5435 9.0299 4.60078C8.96688 4.65805 8.91653 4.72787 8.88207 4.80575C8.84762 4.88363 8.82982 4.96785 8.82982 5.05301C8.82982 5.13817 8.84762 5.22238 8.88207 5.30026C8.91653 5.37814 8.96688 5.44796 9.0299 5.50524C9.09292 5.56251 9.16721 5.60599 9.24802 5.63287C9.32882 5.65975 9.41436 5.66945 9.49913 5.66134H10.6825L7.28246 14.1947H5.8158C5.73102 14.1866 5.64549 14.1963 5.56469 14.2231C5.48388 14.25 5.40959 14.2935 5.34657 14.3508C5.28355 14.4081 5.23319 14.4779 5.19874 14.5557C5.16428 14.6336 5.14648 14.7178 5.14648 14.803C5.14648 14.8882 5.16428 14.9724 5.19874 15.0503C5.23319 15.1281 5.28355 15.198 5.34657 15.2552C5.40959 15.3125 5.48388 15.356 5.56469 15.3829C5.64549 15.4098 5.73102 15.4195 5.8158 15.4113H9.88802C9.97279 15.4195 10.0583 15.4098 10.1391 15.3829C10.2199 15.356 10.2942 15.3125 10.3572 15.2552C10.4203 15.198 10.4706 15.1281 10.5051 15.0503C10.5395 14.9724 10.5573 14.8882 10.5573 14.803C10.5573 14.7178 10.5395 14.6336 10.5051 14.5557C10.4706 14.4779 10.4203 14.4081 10.3572 14.3508C10.2942 14.2935 10.2199 14.25 10.1391 14.2231C10.0583 14.1963 9.97279 14.1866 9.88802 14.1947H8.61579L12.0213 5.66134H13.5658C13.6506 5.66945 13.7361 5.65975 13.8169 5.63287C13.8977 5.60599 13.972 5.56251 14.035 5.50524C14.098 5.44796 14.1484 5.37814 14.1828 5.30026C14.2173 5.22238 14.2351 5.13817 14.2351 5.05301C14.2351 4.96785 14.2173 4.88363 14.1828 4.80575C14.1484 4.72787 14.098 4.65805 14.035 4.60078C13.972 4.5435 13.8977 4.50002 13.8169 4.47314C13.7361 4.44626 13.6506 4.43656 13.5658 4.44467Z" fill="#434445"/>
</g>
<defs>
<clipPath id="clip0_43_1523">
<rect width="20" height="20" fill="white"/>
</clipPath>
</defs>
</svg>
