<svg width="191" height="191" viewBox="0 0 191 191" fill="none" xmlns="http://www.w3.org/2000/svg">
<path d="M152.8 88.6241C152.8 80.6021 146.306 76.4001 137.52 76.4001H111.926C113.836 69.5241 114.6 63.0301 114.6 57.3001C114.6 35.1441 108.488 30.5601 103.14 30.5601C99.7019 30.5601 97.0279 30.9421 93.5899 32.8521C92.4439 33.6161 92.0619 34.3801 91.6799 35.5261L87.8599 56.1541C83.6579 66.8501 73.3439 76.4001 64.9399 82.8941V137.52C67.9959 137.52 71.0519 139.048 74.8719 140.958C79.0739 142.868 83.2759 145.16 87.8599 145.16H124.15C131.79 145.16 137.52 139.048 137.52 133.7C137.52 132.554 137.52 131.79 137.138 131.026C141.722 129.116 145.16 125.296 145.16 120.33C145.16 118.038 144.778 116.128 144.014 114.218C147.07 112.308 149.744 108.87 149.744 105.05C149.744 102.758 148.598 100.466 147.452 98.5561C150.508 96.2641 152.8 92.4441 152.8 88.6241V88.6241ZM144.778 88.6241C144.778 93.5901 139.812 93.9721 139.048 96.2641C138.284 98.9381 142.104 99.7021 142.104 104.286C142.104 108.87 136.374 108.87 135.61 111.544C134.846 114.6 137.52 115.364 137.52 119.948V120.712C136.756 124.532 131.026 124.914 129.88 126.442C128.734 128.352 129.88 129.116 129.88 133.318C129.88 135.61 127.206 137.138 124.15 137.138H87.8599C84.8039 137.138 81.7479 135.61 77.9279 133.7C74.8719 132.172 71.8159 130.644 68.7599 129.88V89.7701C78.3099 82.5121 90.5339 71.8161 95.1179 58.4461V57.6821L98.5559 38.5821C100.084 38.2001 101.23 38.2001 103.14 38.2001C103.904 38.2001 106.96 42.7841 106.96 57.3001C106.96 63.0301 105.814 69.1421 103.904 76.4001H103.14C100.848 76.4001 99.3199 77.9281 99.3199 80.2201C99.3199 82.5121 100.848 84.0401 103.14 84.0401H137.52C141.34 84.0401 144.778 85.9501 144.778 88.6241Z" fill="white"/>
<path d="M61.1201 145.16H38.2001C33.9981 145.16 30.5601 141.722 30.5601 137.52V84.0399C30.5601 79.8379 33.9981 76.3999 38.2001 76.3999H61.1201C65.3221 76.3999 68.7601 79.8379 68.7601 84.0399V137.52C68.7601 141.722 65.3221 145.16 61.1201 145.16ZM38.2001 84.0399V137.52H61.1201V84.0399H38.2001Z" fill="white"/>
</svg>
