<svg width="36" height="35" viewBox="0 0 36 35" fill="none" xmlns="http://www.w3.org/2000/svg">
<circle cx="18.2047" cy="17.3668" r="16.8668" stroke="white"/>
<path d="M28.2141 17.0041V23.4608H24.4709V17.4364C24.4709 15.9226 23.9292 14.8901 22.5747 14.8901C21.5405 14.8901 20.9245 15.5866 20.6541 16.2595C20.5553 16.5001 20.5299 16.8353 20.5299 17.1721V23.4608H16.7849C16.7849 23.4608 16.8356 13.2583 16.7849 12.2004H20.5299V13.7964L20.5054 13.8331H20.5299V13.7964C21.0269 13.0308 21.915 11.9361 23.9039 11.9361C26.367 11.9361 28.2141 13.5461 28.2141 17.0041V17.0041ZM12.8684 6.77275C11.5882 6.77275 10.75 7.61275 10.75 8.71788C10.75 9.7985 11.5638 10.6639 12.8194 10.6639H12.8439C14.1502 10.6639 14.9614 9.7985 14.9614 8.71788C14.9386 7.61275 14.1511 6.77275 12.8692 6.77275H12.8684ZM10.9723 23.4608H14.7155V12.2004H10.9723V23.4608Z" fill="white"/>
</svg>
