<svg width="12" height="13" viewBox="0 0 12 13" fill="none" xmlns="http://www.w3.org/2000/svg">
<path d="M5.25829 7.26386C5.46187 7.47511 5.46187 7.82178 5.25829 8.03303C5.06464 8.24428 4.74687 8.24428 4.55322 8.03303C4.08816 7.52493 3.82695 6.83626 3.82695 6.11824C3.82695 5.40021 4.08816 4.71154 4.55322 4.20344L6.31093 2.28594C6.77669 1.77861 7.40797 1.49365 8.06615 1.49365C8.72434 1.49365 9.35562 1.77861 9.82138 2.28594C10.2864 2.79404 10.5476 3.48271 10.5476 4.20074C10.5476 4.91876 10.2864 5.60743 9.82138 6.11553L9.08155 6.92261C9.08652 6.47844 9.02197 6.03428 8.88294 5.61178L9.11631 5.35178C9.25551 5.20157 9.36601 5.02273 9.44143 4.82562C9.51684 4.62851 9.55568 4.41704 9.55568 4.20344C9.55568 3.98985 9.51684 3.77838 9.44143 3.58127C9.36601 3.38416 9.25551 3.20532 9.11631 3.05511C8.97862 2.90326 8.81468 2.78271 8.634 2.70044C8.45331 2.61816 8.25946 2.5758 8.06367 2.5758C7.86788 2.5758 7.67403 2.61816 7.49334 2.70044C7.31266 2.78271 7.14873 2.90326 7.01103 3.05511L5.25829 4.96719C5.11909 5.1174 5.00859 5.29624 4.93317 5.49335C4.85776 5.69046 4.81892 5.90194 4.81892 6.11553C4.81892 6.32912 4.85776 6.54059 4.93317 6.7377C5.00859 6.93481 5.11909 7.11365 5.25829 7.26386ZM6.6585 4.96719C6.85214 4.75594 7.16992 4.75594 7.36357 4.96719C7.82863 5.47529 8.08983 6.16396 8.08983 6.88199C8.08983 7.60001 7.82863 8.28868 7.36357 8.79678L5.60586 10.7143C5.1401 11.2216 4.50882 11.5066 3.85063 11.5066C3.19245 11.5066 2.56116 11.2216 2.09541 10.7143C1.63035 10.2062 1.36914 9.51751 1.36914 8.79949C1.36914 8.08146 1.63035 7.39279 2.09541 6.88469L2.83523 6.07761C2.83027 6.52178 2.89482 6.96594 3.03385 7.39386L2.80048 7.64844C2.66128 7.79866 2.55078 7.97749 2.47536 8.1746C2.39994 8.37171 2.36111 8.58318 2.36111 8.79678C2.36111 9.01037 2.39994 9.22184 2.47536 9.41895C2.55078 9.61606 2.66128 9.7949 2.80048 9.94511C2.93817 10.097 3.1021 10.2175 3.28279 10.2998C3.46347 10.3821 3.65732 10.4244 3.85312 10.4244C4.04891 10.4244 4.24276 10.3821 4.42344 10.2998C4.60413 10.2175 4.76806 10.097 4.90576 9.94511L6.6585 8.03303C6.79769 7.88282 6.9082 7.70398 6.98361 7.50687C7.05903 7.30976 7.09786 7.09829 7.09786 6.88469C7.09786 6.6711 7.05903 6.45963 6.98361 6.26252C6.9082 6.06541 6.79769 5.88657 6.6585 5.73636C6.61027 5.68706 6.57184 5.6275 6.54556 5.56135C6.51928 5.4952 6.50572 5.42387 6.50572 5.35178C6.50572 5.27968 6.51928 5.20835 6.54556 5.1422C6.57184 5.07605 6.61027 5.01649 6.6585 4.96719Z" fill="#474343"/>
</svg>
