<svg width="58" height="58" viewBox="0 0 58 58" fill="none" xmlns="http://www.w3.org/2000/svg">
<circle cx="29.1758" cy="28.6084" r="28.1084" stroke="#131415"/>
<g clip-path="url(#clip0_34_61)">
<path d="M23.0096 41.125H17.386V23.0152H23.0096V41.125ZM20.1944 20.5449C18.3964 20.5449 16.9375 19.0549 16.9375 17.2569C16.9375 16.3931 17.2806 15.5647 17.8914 14.9539C18.5022 14.3431 19.3306 14 20.1944 14C21.0582 14 21.8866 14.3431 22.4974 14.9539C23.1082 15.5647 23.4514 16.3931 23.4514 17.2569C23.4514 19.0549 21.9924 20.5449 20.1944 20.5449ZM44.0567 41.125H38.4457V32.3094C38.4457 30.2082 38.4031 27.5141 35.522 27.5141C32.5983 27.5141 32.1498 29.7964 32.1498 32.1582V41.125H26.532V23.0152H31.925V25.4855H32.0035C32.7543 24.0624 34.5881 22.5608 37.3239 22.5608C43.0153 22.5608 44.0615 26.3089 44.0615 31.1769V41.125H44.0567Z" fill="black"/>
</g>
<defs>
<clipPath id="clip0_34_61">
<rect width="31" height="31" fill="white" transform="translate(15 14)"/>
</clipPath>
</defs>
</svg>
