<svg width="63" height="63" viewBox="0 0 63 63" fill="none" xmlns="http://www.w3.org/2000/svg">
<path d="M15.75 0C13.5844 0 11.8125 1.77187 11.8125 3.9375V59.0625C11.8125 61.2281 13.5844 63 15.75 63H55.125C57.2906 63 59.0625 61.2281 59.0625 59.0625V15.75L43.3125 0H15.75Z" fill="#E2E5E7"/>
<path d="M47.25 15.75H59.0625L43.3125 0V11.8125C43.3125 13.9781 45.0844 15.75 47.25 15.75Z" fill="#B0B7BD"/>
<path d="M59.0625 27.5625L47.25 15.75H59.0625V27.5625Z" fill="#CAD1D8"/>
<path d="M51.1875 51.1875C51.1875 52.2703 50.3016 53.1562 49.2188 53.1562H5.90625C4.82344 53.1562 3.9375 52.2703 3.9375 51.1875V31.5C3.9375 30.4172 4.82344 29.5312 5.90625 29.5312H49.2188C50.3016 29.5312 51.1875 30.4172 51.1875 31.5V51.1875Z" fill="#F15642"/>
<path d="M12.5195 37.3016C12.5195 36.7818 12.929 36.2148 13.5886 36.2148H17.2248C19.2723 36.2148 21.1151 37.5851 21.1151 40.2114C21.1151 42.6999 19.2723 44.0859 17.2248 44.0859H14.5966V46.1649C14.5966 46.8579 14.1556 47.2497 13.5886 47.2497C13.0688 47.2497 12.5195 46.8579 12.5195 46.1649V37.3016ZM14.5966 38.1974V42.1191H17.2248C18.2801 42.1191 19.1148 41.1879 19.1148 40.2114C19.1148 39.1109 18.2801 38.1974 17.2248 38.1974H14.5966Z" fill="white"/>
<path d="M24.1981 47.2495C23.6783 47.2495 23.1113 46.966 23.1113 46.275V37.3329C23.1113 36.7679 23.6783 36.3564 24.1981 36.3564H27.8029C34.9967 36.3564 34.8392 47.2495 27.9446 47.2495H24.1981ZM25.1903 38.2779V45.33H27.8029C32.0534 45.33 32.2424 38.2779 27.8029 38.2779H25.1903Z" fill="white"/>
<path d="M37.3913 38.404V40.9062H41.4056C41.9726 40.9062 42.5396 41.4732 42.5396 42.0225C42.5396 42.5423 41.9726 42.9675 41.4056 42.9675H37.3913V46.2731C37.3913 46.8243 36.9996 47.2476 36.4483 47.2476C35.7553 47.2476 35.332 46.8243 35.332 46.2731V37.331C35.332 36.766 35.7573 36.3545 36.4483 36.3545H41.9746C42.6676 36.3545 43.0771 36.766 43.0771 37.331C43.0771 37.835 42.6676 38.402 41.9746 38.402H37.3913V38.404Z" fill="white"/>
<path d="M49.2188 53.1562H11.8125V55.125H49.2188C50.3016 55.125 51.1875 54.2391 51.1875 53.1562V51.1875C51.1875 52.2703 50.3016 53.1562 49.2188 53.1562Z" fill="#CAD1D8"/>
</svg>
