<svg width="22" height="21" viewBox="0 0 22 21" fill="none" xmlns="http://www.w3.org/2000/svg">
<path d="M16.7004 14.617L21.0579 18.899L19.6183 20.314L15.2618 16.031C13.6409 17.3082 11.6247 18.0029 9.54715 18C4.49275 18 0.390625 13.968 0.390625 9C0.390625 4.032 4.49275 0 9.54715 0C14.6015 0 18.7037 4.032 18.7037 9C18.7066 11.042 17.9999 13.0237 16.7004 14.617ZM14.6595 13.875C15.9507 12.5699 16.6718 10.8204 16.6689 9C16.6689 5.132 13.4814 2 9.54715 2C5.61188 2 2.42541 5.132 2.42541 9C2.42541 12.867 5.61188 16 9.54715 16C11.3992 16.0029 13.1791 15.2941 14.5069 14.025L14.6595 13.875Z" fill="white"/>
</svg>
