<svg width="24" height="24" viewBox="0 0 24 24" fill="none" xmlns="http://www.w3.org/2000/svg">
<path d="M21.5529 23.25L14.5666 16.5465C13.8595 17.1122 13.0463 17.5601 12.127 17.8901C11.2078 18.22 10.2296 18.385 9.19252 18.385C6.62333 18.385 4.44918 17.4955 2.67007 15.7164C0.890024 13.9363 0 11.7617 0 9.19252C0 6.62333 0.890024 4.44871 2.67007 2.66866C4.44918 0.889553 6.62333 0 9.19252 0C11.7617 0 13.9363 0.889553 15.7164 2.66866C17.4955 4.44871 18.385 6.62333 18.385 9.19252C18.385 10.2296 18.22 11.2078 17.89 12.1271C17.5601 13.0463 17.1122 13.8595 16.5465 14.5666L23.5894 21.2135L21.5529 23.25ZM9.19252 15.5566C10.9603 15.5566 12.4632 14.9381 13.7011 13.7011C14.9381 12.4632 15.5566 10.9603 15.5566 9.19252C15.5566 7.42473 14.9381 5.92187 13.7011 4.68394C12.4632 3.44696 10.9603 2.82847 9.19252 2.82847C7.42472 2.82847 5.92187 3.44696 4.68394 4.68394C3.44696 5.92187 2.82847 7.42473 2.82847 9.19252C2.82847 10.9603 3.44696 12.4632 4.68394 13.7011C5.92187 14.9381 7.42472 15.5566 9.19252 15.5566Z" fill="#666666"/>
</svg>
