<svg width="52" height="52" viewBox="0 0 52 52" fill="none" xmlns="http://www.w3.org/2000/svg">
<circle cx="25.5597" cy="25.5597" r="25.0597" stroke="white"/>
<path d="M30 29.08C29.24 29.08 28.56 29.38 28.04 29.85L20.91 25.7C20.96 25.47 21 25.24 21 25C21 24.76 20.96 24.53 20.91 24.3L27.96 20.19C28.5 20.69 29.21 21 30 21C31.66 21 33 19.66 33 18C33 16.34 31.66 15 30 15C28.34 15 27 16.34 27 18C27 18.24 27.04 18.47 27.09 18.7L20.04 22.81C19.5 22.31 18.79 22 18 22C16.34 22 15 23.34 15 25C15 26.66 16.34 28 18 28C18.79 28 19.5 27.69 20.04 27.19L27.16 31.35C27.11 31.56 27.08 31.78 27.08 32C27.08 33.61 28.39 34.92 30 34.92C31.61 34.92 32.92 33.61 32.92 32C32.92 30.39 31.61 29.08 30 29.08Z" fill="white"/>
</svg>
