<svg width="51" height="51" viewBox="0 0 51 51" fill="none" xmlns="http://www.w3.org/2000/svg">
<g clip-path="url(#clip0_43_2366)">
<path d="M25.5244 0.398438C20.5598 0.398437 15.7067 1.87062 11.5787 4.62881C7.45081 7.38701 4.23348 11.3073 2.33361 15.894C0.433728 20.4808 -0.0633669 25.5278 0.905182 30.3971C1.87373 35.2663 4.26442 39.739 7.77494 43.2495C11.2855 46.76 15.7581 49.1507 20.6274 50.1192C25.4966 51.0878 30.5437 50.5907 35.1304 48.6908C39.7171 46.7909 43.6374 43.5736 46.3956 39.4457C49.1538 35.3177 50.626 30.4646 50.626 25.5C50.6195 18.8446 47.9728 12.4638 43.2667 7.75771C38.5607 3.05167 32.1798 0.404953 25.5244 0.398438ZM25.5244 47.6484C21.1439 47.6484 16.8617 46.3495 13.2194 43.9157C9.57712 41.482 6.7383 38.0229 5.06194 33.9758C3.38557 29.9287 2.94696 25.4754 3.80156 21.1791C4.65617 16.8827 6.7656 12.9362 9.86311 9.83869C12.9606 6.74117 16.9071 4.63174 21.2035 3.77714C25.4999 2.92254 29.9532 3.36115 34.0003 5.03751C38.0474 6.71387 41.5065 9.5527 43.9402 13.195C46.3739 16.8373 47.6729 21.1195 47.6729 25.5C47.6663 31.3721 45.3308 37.0019 41.1785 41.1541C37.0263 45.3063 31.3966 47.6419 25.5244 47.6484ZM39.4041 21.341C39.2206 21.6862 38.9096 21.9463 38.5374 22.0658C38.1651 22.1852 37.7609 22.1548 37.4107 21.9809C33.7253 20.0894 29.6423 19.1028 25.4998 19.1028C21.3573 19.1028 17.2743 20.0894 13.5889 21.9809C13.3786 22.0986 13.1407 22.1581 12.8998 22.1531C12.5638 22.1579 12.2362 22.048 11.9711 21.8414C11.706 21.6348 11.5193 21.344 11.4419 21.017C11.3644 20.69 11.4008 20.3463 11.5451 20.0428C11.6894 19.7393 11.9329 19.4941 12.2354 19.3477C16.349 17.2435 20.9038 16.147 25.5244 16.1484C30.1304 16.1377 34.6714 17.235 38.7643 19.3477C38.9375 19.4361 39.0916 19.558 39.2176 19.7062C39.3436 19.8544 39.4391 20.0261 39.4985 20.2113C39.558 20.3966 39.5803 20.5917 39.564 20.7856C39.5478 20.9795 39.4935 21.1682 39.4041 21.341ZM35.7619 28.3055C35.6756 28.4808 35.5553 28.6373 35.4081 28.7658C35.2608 28.8944 35.0895 28.9924 34.9041 29.0542C34.7186 29.116 34.5228 29.1404 34.3279 29.1259C34.1329 29.1114 33.9428 29.0584 33.7686 28.9699C31.2094 27.659 28.3752 26.9754 25.4998 26.9754C22.6244 26.9754 19.7902 27.659 17.2311 28.9699C17.0239 29.0726 16.7976 29.1313 16.5666 29.1422C16.2284 29.153 15.8967 29.0472 15.6271 28.8427C15.3575 28.6381 15.1664 28.3472 15.0857 28.0186C15.005 27.6899 15.0396 27.3435 15.1837 27.0374C15.3279 26.7312 15.5728 26.4839 15.8775 26.3367C18.857 24.8158 22.1546 24.0228 25.4998 24.0228C28.845 24.0228 32.1426 24.8158 35.1221 26.3367C35.4656 26.5154 35.7251 26.8219 35.8448 27.1902C35.9645 27.5584 35.9347 27.959 35.7619 28.3055ZM32.1197 35.2945C31.9362 35.6398 31.6253 35.8998 31.253 36.0193C30.8807 36.1388 30.4765 36.1083 30.1264 35.9344C28.6973 35.2211 27.1217 34.8503 25.5244 34.8516C23.9078 34.8437 22.3129 35.2234 20.8733 35.959C20.6647 36.0546 20.4382 36.1049 20.2088 36.1066C19.9342 36.1058 19.6651 36.0296 19.4308 35.8864C19.1965 35.7432 19.0059 35.5385 18.8799 35.2945C18.7919 35.1221 18.7393 34.9338 18.7251 34.7407C18.7109 34.5476 18.7355 34.3536 18.7974 34.1702C18.8594 33.9868 18.9573 33.8176 19.0856 33.6725C19.2139 33.5275 19.3698 33.4096 19.5443 33.3258C21.3935 32.3748 23.4451 31.8851 25.5244 31.8984C27.5843 31.892 29.6165 32.3727 31.4553 33.3012C31.6306 33.3875 31.7871 33.5078 31.9157 33.655C32.0442 33.8023 32.1422 33.9736 32.204 34.159C32.2658 34.3444 32.2902 34.5403 32.2757 34.7352C32.2613 34.9301 32.2082 35.1203 32.1197 35.2945Z" fill="white"/>
</g>
<defs>
<clipPath id="clip0_43_2366">
<rect width="51" height="51" fill="white"/>
</clipPath>
</defs>
</svg>
