<svg width="27" height="27" viewBox="0 0 27 27" fill="none" xmlns="http://www.w3.org/2000/svg">
<g clip-path="url(#clip0_1_430)">
<path d="M19.683 16.1806C19.3447 16.0093 17.6968 15.2052 17.3888 15.0905C17.0809 14.9808 16.8573 14.9234 16.6328 15.2617C16.4135 15.5917 15.7672 16.3468 15.5697 16.567C15.3723 16.7873 15.1782 16.8041 14.8449 16.6548C14.5066 16.4835 13.4257 16.1317 12.1424 14.9808C11.14 14.0889 10.4726 12.9904 10.2743 12.652C10.0769 12.3179 10.2524 12.1289 10.4195 11.9618C10.573 11.8083 10.7578 11.5754 10.9291 11.3729C11.0919 11.1704 11.1442 11.0346 11.2632 10.8152C11.3729 10.5781 11.3164 10.3933 11.2328 10.2262C11.1493 10.0592 10.4768 8.40291 10.1959 7.74309C9.92756 7.08834 9.64659 7.17188 9.43987 7.17188C9.24666 7.15416 9.02222 7.15416 8.79862 7.15416C8.57503 7.15416 8.20969 7.23769 7.90172 7.55831C7.59375 7.89666 6.72384 8.70497 6.72384 10.3402C6.72384 11.9796 7.92788 13.5658 8.09494 13.8029C8.26622 14.0223 10.4633 17.3973 13.8341 18.8477C14.6382 19.186 15.2626 19.3885 15.7503 19.5556C16.5544 19.8104 17.2884 19.775 17.8681 19.6914C18.5093 19.586 19.8543 18.8781 20.1361 18.0875C20.4221 17.2918 20.4221 16.6328 20.3386 16.4835C20.2551 16.3299 20.0357 16.2464 19.6973 16.0971L19.683 16.1806ZM13.57 24.4688H13.5523C11.5568 24.4688 9.58416 23.9279 7.86122 22.9171L7.45706 22.6758L3.23831 23.7743L4.37231 19.6695L4.09978 19.2476C2.98558 17.476 2.39448 15.4258 2.39456 13.3329C2.39456 7.20731 7.40897 2.21062 13.5785 2.21062C16.567 2.21062 19.3708 3.375 21.4802 5.48438C22.5208 6.51256 23.3462 7.73768 23.9082 9.08825C24.4703 10.4388 24.7578 11.8878 24.7539 13.3507C24.7455 19.4721 19.7353 24.4688 13.5742 24.4688H13.57ZM23.0842 3.88041C20.5175 1.40147 17.1425 0 13.5523 0C6.14756 0 0.118125 6.00328 0.113906 13.381C0.113906 15.7368 0.729 18.0352 1.90688 20.0694L0 27L7.128 25.1412C9.10264 26.2058 11.3098 26.7658 13.5532 26.7713H13.5574C20.9663 26.7713 26.9958 20.7681 27 13.3853C27 9.81281 25.607 6.45047 23.0673 3.92344L23.0842 3.88041Z" fill="black"/>
</g>
<defs>
<clipPath id="clip0_1_430">
<rect width="27" height="27" fill="white"/>
</clipPath>
</defs>
</svg>
