<svg width="58" height="58" viewBox="0 0 58 58" fill="none" xmlns="http://www.w3.org/2000/svg">
<circle cx="28.9021" cy="28.6084" r="28.1084" stroke="#131415"/>
<g clip-path="url(#clip0_34_53)">
<path d="M32.3075 30.5688V33.9122C32.3075 34.62 32.1025 34.9738 31.6925 34.9738C31.4508 34.9738 31.2142 34.8576 30.983 34.6252V29.8557C31.2142 29.6233 31.4508 29.5071 31.6925 29.5071C32.1025 29.5071 32.3075 29.861 32.3075 30.5688ZM37.637 30.5846V31.3135H36.2179V30.5846C36.2179 29.8663 36.4544 29.5071 36.9275 29.5071C37.4005 29.5071 37.637 29.8663 37.637 30.5846ZM22.4053 27.1303H24.0924V25.6408H19.1728V27.1303H20.8285V36.1464H22.4053V27.1303ZM26.9464 36.1464H28.3497V28.3187H26.9464V34.3083C26.631 34.752 26.3315 34.9738 26.0476 34.9738C25.8584 34.9738 25.748 34.8629 25.7165 34.6411C25.706 34.6094 25.7007 34.4245 25.7007 34.0865V28.3187H24.2974V34.5143C24.2974 35.0319 24.3394 35.4175 24.4235 35.6711C24.5497 36.0619 24.8545 36.2573 25.3381 36.2573C25.8426 36.2573 26.3788 35.9351 26.9464 35.2908V36.1464ZM33.7108 33.8013V30.6797C33.7108 29.9086 33.6635 29.3857 33.5689 29.111C33.3902 28.5194 33.017 28.2236 32.4494 28.2236C31.9238 28.2236 31.435 28.5089 30.983 29.0793V25.6408H29.5796V36.1464H30.983V35.3858C31.456 35.9668 31.9448 36.2573 32.4494 36.2573C33.017 36.2573 33.3902 35.9668 33.5689 35.3858C33.6635 35.1006 33.7108 34.5724 33.7108 33.8013ZM39.0404 33.6428V33.4368H37.6055C37.6055 33.9756 37.595 34.2978 37.5739 34.4034C37.5004 34.7837 37.2901 34.9738 36.9432 34.9738C36.4597 34.9738 36.2179 34.6094 36.2179 33.8805V32.5019H39.0404V30.8699C39.0404 30.0353 38.8984 29.4226 38.6146 29.0318C38.2047 28.493 37.6475 28.2236 36.9432 28.2236C36.2284 28.2236 35.666 28.493 35.2561 29.0318C34.9617 29.4226 34.8146 30.0353 34.8146 30.8699V33.6111C34.8146 34.4457 34.967 35.0584 35.2718 35.4492C35.6818 35.988 36.2494 36.2573 36.9748 36.2573C37.7316 36.2573 38.2993 35.9774 38.6777 35.4175C38.8669 35.1323 38.9773 34.8471 39.0088 34.5619C39.0298 34.4668 39.0404 34.1604 39.0404 33.6428ZM29.4535 19.1758V15.8483C29.4535 15.1194 29.2275 14.7549 28.7755 14.7549C28.3235 14.7549 28.0975 15.1194 28.0975 15.8483V19.1758C28.0975 19.9153 28.3235 20.285 28.7755 20.285C29.2275 20.285 29.4535 19.9153 29.4535 19.1758ZM40.7906 31.0758C40.7906 33.5477 40.6539 35.3964 40.3806 36.6218C40.2335 37.245 39.9286 37.7679 39.4661 38.1905C39.0036 38.613 38.4675 38.856 37.8578 38.9194C35.9236 39.1412 33.0065 39.2521 29.1066 39.2521C25.2067 39.2521 22.2896 39.1412 20.3554 38.9194C19.7457 38.856 19.207 38.613 18.7392 38.1905C18.2714 37.7679 17.9692 37.245 17.8326 36.6218C17.5593 35.4387 17.4226 33.59 17.4226 31.0758C17.4226 28.6039 17.5593 26.7553 17.8326 25.5299C17.9797 24.9066 18.2846 24.3837 18.7471 23.9612C19.2096 23.5386 19.751 23.2904 20.3712 23.2165C22.2949 23.0052 25.2067 22.8995 29.1066 22.8995C33.0065 22.8995 35.9236 23.0052 37.8578 23.2165C38.4675 23.2904 39.0062 23.5386 39.474 23.9612C39.9417 24.3837 40.244 24.9066 40.3806 25.5299C40.6539 26.713 40.7906 28.5617 40.7906 31.0758ZM25.0543 10.8569H26.6626L24.7547 17.1793V21.4734H23.1779V17.1793C23.0307 16.3976 22.7101 15.2778 22.216 13.82C21.8271 12.732 21.4855 11.7443 21.1911 10.8569H22.8625L23.982 15.0243L25.0543 10.8569ZM30.8884 16.1335V18.9065C30.8884 19.7621 30.7412 20.3854 30.4469 20.7762C30.0474 21.315 29.4903 21.5844 28.7755 21.5844C28.0712 21.5844 27.5193 21.315 27.1198 20.7762C26.8255 20.3748 26.6783 19.7516 26.6783 18.9065V16.1335C26.6783 15.2884 26.8255 14.6704 27.1198 14.2796C27.5193 13.7408 28.0712 13.4714 28.7755 13.4714C29.4903 13.4714 30.0474 13.7408 30.4469 14.2796C30.7412 14.6704 30.8884 15.2884 30.8884 16.1335ZM36.1706 13.5665V21.4734H34.7357V20.6019C34.1786 21.2569 33.6372 21.5844 33.1116 21.5844C32.6281 21.5844 32.318 21.3889 32.1813 20.9981C32.0972 20.7446 32.0552 20.3484 32.0552 19.8097V13.5665H33.4901V19.3818C33.4901 19.7304 33.4953 19.9153 33.5058 19.9364C33.5374 20.1688 33.6477 20.285 33.837 20.285C34.1208 20.285 34.4204 20.0579 34.7357 19.6037V13.5665H36.1706Z" fill="#131415"/>
</g>
<defs>
<clipPath id="clip0_34_53">
<rect width="24.2194" height="28.3952" fill="white" transform="translate(16.9968 10.8569)"/>
</clipPath>
</defs>
</svg>
