<svg width="35" height="35" viewBox="0 0 35 35" fill="none" xmlns="http://www.w3.org/2000/svg">
<circle cx="17.6329" cy="17.3668" r="16.8668" stroke="white"/>
<g clip-path="url(#clip0_194_239)">
<path d="M19.7004 18.5569V20.5865C19.7004 21.0161 19.576 21.231 19.3271 21.231C19.1804 21.231 19.0368 21.1604 18.8964 21.0193V18.124C19.0368 17.9829 19.1804 17.9124 19.3271 17.9124C19.576 17.9124 19.7004 18.1272 19.7004 18.5569ZM22.9358 18.5665V19.009H22.0743V18.5665C22.0743 18.1304 22.2179 17.9124 22.505 17.9124C22.7922 17.9124 22.9358 18.1304 22.9358 18.5665ZM13.6893 16.4695H14.7135V15.5653H11.727V16.4695H12.7321V21.9428H13.6893V16.4695ZM16.446 21.9428H17.2979V17.191H16.446V20.827C16.2546 21.0963 16.0727 21.231 15.9004 21.231C15.7855 21.231 15.7185 21.1636 15.6994 21.029C15.693 21.0097 15.6898 20.8975 15.6898 20.6923V17.191H14.8379V20.952C14.8379 21.2662 14.8634 21.5003 14.9145 21.6542C14.9911 21.8915 15.1761 22.0101 15.4697 22.0101C15.776 22.0101 16.1014 21.8145 16.446 21.4233V21.9428ZM20.5523 20.5192V18.6242C20.5523 18.1561 20.5236 17.8386 20.4662 17.6719C20.3577 17.3128 20.1312 17.1332 19.7866 17.1332C19.4675 17.1332 19.1708 17.3064 18.8964 17.6527V15.5653H18.0445V21.9428H18.8964V21.4811C19.1836 21.8338 19.4803 22.0101 19.7866 22.0101C20.1312 22.0101 20.3577 21.8338 20.4662 21.4811C20.5236 21.3079 20.5523 20.9873 20.5523 20.5192ZM23.7877 20.423V20.2979H22.9166C22.9166 20.625 22.9102 20.8206 22.8975 20.8847C22.8528 21.1155 22.7252 21.231 22.5146 21.231C22.221 21.231 22.0743 21.0097 22.0743 20.5672V19.7304H23.7877V18.7396C23.7877 18.233 23.7015 17.8611 23.5292 17.6238C23.2803 17.2968 22.9421 17.1332 22.5146 17.1332C22.0807 17.1332 21.7393 17.2968 21.4904 17.6238C21.3117 17.8611 21.2224 18.233 21.2224 18.7396V20.4037C21.2224 20.9103 21.3149 21.2823 21.5 21.5195C21.7488 21.8466 22.0934 22.0101 22.5337 22.0101C22.9932 22.0101 23.3378 21.8402 23.5675 21.5003C23.6824 21.3272 23.7494 21.154 23.7685 20.9809C23.7813 20.9232 23.7877 20.7372 23.7877 20.423ZM17.9679 11.6407V9.62074C17.9679 9.17827 17.8307 8.95703 17.5563 8.95703C17.2819 8.95703 17.1447 9.17827 17.1447 9.62074V11.6407C17.1447 12.0896 17.2819 12.3141 17.5563 12.3141C17.8307 12.3141 17.9679 12.0896 17.9679 11.6407ZM24.8501 18.8647C24.8501 20.3652 24.7672 21.4875 24.6013 22.2313C24.5119 22.6097 24.3269 22.9271 24.0461 23.1836C23.7653 23.4401 23.4399 23.5876 23.0698 23.6261C21.8956 23.7608 20.1248 23.8281 17.7573 23.8281C15.3899 23.8281 13.6191 23.7608 12.4449 23.6261C12.0748 23.5876 11.7478 23.4401 11.4638 23.1836C11.1798 22.9271 10.9964 22.6097 10.9134 22.2313C10.7475 21.5131 10.6646 20.3909 10.6646 18.8647C10.6646 17.3641 10.7475 16.2419 10.9134 15.498C11.0028 15.1196 11.1878 14.8022 11.4686 14.5457C11.7494 14.2892 12.078 14.1385 12.4545 14.0936C13.6223 13.9654 15.3899 13.9012 17.7573 13.9012C20.1248 13.9012 21.8956 13.9654 23.0698 14.0936C23.4399 14.1385 23.7669 14.2892 24.0509 14.5457C24.3348 14.8022 24.5183 15.1196 24.6013 15.498C24.7672 16.2162 24.8501 17.3384 24.8501 18.8647ZM15.2974 6.59074H16.2737L15.1155 10.4287V13.0355H14.1583V10.4287C14.069 9.95421 13.8743 9.27446 13.5744 8.3895C13.3383 7.72899 13.1309 7.1294 12.9522 6.59074H13.9669L14.6465 9.12055L15.2974 6.59074ZM18.839 9.79389V11.4772C18.839 11.9967 18.7496 12.375 18.571 12.6123C18.3285 12.9393 17.9903 13.1028 17.5563 13.1028C17.1288 13.1028 16.7938 12.9393 16.5513 12.6123C16.3726 12.3686 16.2833 11.9902 16.2833 11.4772V9.79389C16.2833 9.28087 16.3726 8.90573 16.5513 8.66846C16.7938 8.34141 17.1288 8.17788 17.5563 8.17788C17.9903 8.17788 18.3285 8.34141 18.571 8.66846C18.7496 8.90573 18.839 9.28087 18.839 9.79389ZM22.0456 8.2356V13.0355H21.1745V12.5065C20.8363 12.9041 20.5077 13.1028 20.1886 13.1028C19.8951 13.1028 19.7068 12.9842 19.6239 12.7469C19.5728 12.593 19.5473 12.3526 19.5473 12.0255V8.2356H20.4183V11.7658C20.4183 11.9774 20.4215 12.0896 20.4279 12.1025C20.4471 12.2435 20.5141 12.3141 20.6289 12.3141C20.8012 12.3141 20.9831 12.1762 21.1745 11.9005V8.2356H22.0456Z" fill="white"/>
</g>
<defs>
<clipPath id="clip0_194_239">
<rect width="14.7025" height="17.2374" fill="white" transform="translate(10.4062 6.59074)"/>
</clipPath>
</defs>
</svg>
