<?xml version="1.0" encoding="utf-8"?>
<!-- Generator: Adobe Illustrator 26.5.0, SVG Export Plug-In . SVG Version: 6.00 Build 0)  -->
<svg version="1.1"
	 id="svg2" xmlns:cc="http://creativecommons.org/ns#" xmlns:svg="http://www.w3.org/2000/svg" xmlns:ns1="http://sozi.baierouge.fr" xmlns:sodipodi="http://sodipodi.sourceforge.net/DTD/sodipodi-0.dtd" xmlns:dc="http://purl.org/dc/elements/1.1/" xmlns:inkscape="http://www.inkscape.org/namespaces/inkscape" xmlns:rdf="http://www.w3.org/1999/02/22-rdf-syntax-ns#" inkscape:output_extension="org.inkscape.output.svg.inkscape" inkscape:version="0.46" sodipodi:docname="world_map_saint_.svg" sodipodi:version="0.32"
	 xmlns="http://www.w3.org/2000/svg" xmlns:xlink="http://www.w3.org/1999/xlink" x="0px" y="0px" viewBox="0 0 3818 1880"
	 style="enable-background:new 0 0 3818 1880;" xml:space="preserve">
<style type="text/css">
	.st0{fill:#A3A3A3;}
	.st1{fill:#008A5F;}
	.st2{display:none;fill:#FF4635;}
	.st3{fill:#004E9F;}
	.st4{fill:none;}
	.st5{fill:#FFFFFF;}
	.st6{font-family:'Arial-Black';}
	.st7{font-size:26px;}
	.st8{display:none;fill:#0059B4;}
	.st9{display:none;fill:#FF7200;}
	.st10{fill:#FF8207;}
	.st11{font-size:48px;}
	.st12{display:none;fill:#006A2B;}
	.st13{fill:#FFD12A;}
	.st14{font-size:24px;}
	.st15{fill:#FF4635;}
	.st16{font-size:22px;}
</style>
<sodipodi:namedview  bordercolor="#666666" borderopacity="1.0" gridtolerance="10.0" guidetolerance="10.0" id="base" inkscape:current-layer="svg2" inkscape:cx="171.79065" inkscape:cy="84.620705" inkscape:pageopacity="0.0" inkscape:pageshadow="2" inkscape:window-height="674" inkscape:window-width="640" inkscape:window-x="0" inkscape:window-y="0" inkscape:zoom="1.5949646" objecttolerance="10.0" pagecolor="#ffffff" showgrid="false">
	</sodipodi:namedview>
<g id="Layer_1">
	<path id="_x34_3381528" class="st0" d="M3608,679l-76,32l-19-23l69-32L3608,679z M3504,738l-59,96l-95,49l-27-32l95-53l32-93
		L3504,738z M3490,942l-31,23l-28-87l19,5L3490,942z M3541,1320l-191-40l-6-68l179,45L3541,1320z M3813,1690l-67,82l-32-4l-9-47
		l83-90l-34-51l19-28l32,47L3813,1690z M3299,1202l-36,63l-31-4l31-72L3299,1202z M3232,1189l-38,72l-68-18l5-54l59-59L3232,1189z
		 M3818,487l-127,14l4,45l-76,100l-15-91l42-54l-146,14l-86,45l-11,37l61-14l4,86l-41,4l-13,42l-83,55l13,36l-53,36l-19-63l-36,19
		l9,127l-155,90l41,60l-68,40l-28-53l-14,4l14,59l55,36l-19,19l-36-10l9,28l32,4l18,55l83,31l4,28l-95-17l-133-146l55,4l-78-169v-46
		h-22l-10,42l-76,59v55l-60,17l-37-104l-26-8l4-61l-219-40l36,59l37-13l41,40l-41,51l-96,36l-100-192h-27l-4,37l67,136l51,38l78-6
		l-141,205l17,18l6,68l-42,32l-5,51l-109,132l-87-5l-77-210l24-32v-54l-65-77l27-18l-63-41l-127-4l-74-65l-4-140l164-142l91-8l23,26
		l-5,23l73,23l36-32l28,23l99,5l19-19v-55l-41,55l-54-73l9,73l-51-37l-9-54l-61-71l-11,12l49,68l-32,45l-13-54l-55-41l-31,28l-19-10
		l-104,97l-37-102l73,5l13-32l-27-28l46-36l27-4l51-46l-14-36l27-13l18,27l92-5l4-26l100-38l-18-22l-63,22l-19-40l46-36l-27-28
		l-59,77l21,18l-4,47l-59,17l-14-36l-63,8l4-54l104-140l115-28l172,40l-31,47l-68-6l45,46l132-87h87l-59-67l68-70l95-40l14,32
		l-90,32l-51,54l104,64l-17-32l63-55l114,28l17-36l206-78l141,31l-104,60l323,33l55-55l26,49l156,14l45,24l127-15V487z M3591,1508
		l-78,145l-63-5l-123-91l-4,23l-151,31l18-63l-32-13v-78l197-127l90,59l5-50l27-4L3591,1508z M1987,587l-4,38h-64l20-38l-42-45
		l31-32l19,45L1987,587z M1860,415l-82,59l-49-73l91-23L1860,415z M2118,809l-28-10l17-27L2118,809z M1842,82l-54,46l-10,114
		l-82,127l-131,40l-32,78l-59-4l-68-105l-27-141l-55-41l-60,19l-31-42l99-123l410-50L1842,82z M1907,602l-28,31l-31-28l26-45
		L1907,602z M2512,1358l-41,131l-59-41l17-59l59-46L2512,1358z M1218,956l-36-18v-32L1218,956z M1351,1043l-23,9l-114-41l8-23
		L1351,1043z M1191,975l-9,28l-70-15l7-34L1191,975z M1619,1293l-36,42l-10,82l-277,296c10,17,13,37,9,59l-36,36l32,40l-28,32
		l-72-81v-132l45-260l-60-28l-63-158l27-41v-46h-63l-28-55l-36,4l-128-72l-41-50h-50L667,779l6-91l-47-68l-31,9l-23-46l27,4
		c-6.7-7-24-25.4-39.8-42.1C547,532,535.7,520,531,515c-30-4.7-60-9.3-90-14L221,610l78-76l-55-42l-23-155l91-46l437,46l-82-59
		l19-78l437-167l169,8l-150,169l199,163l-63,68l-119-21l15-74h-42l-18,51l13,44l-90-8l-47,63l33,27l64,19l59,68l22-68l-13-14v-68
		l141,23l114,137l-160,91v49l-28-4l-27,27l6,36l-65,55l19,60h-32l-27-41H996l-38,68l38,36h17l36-22l24,13l-9,51l36,4l9,55h65l63-27
		l45,17l85,3l6,56h69l8,65h47L1619,1293z M208,424l-137-4l-32,13l36,36L0,487V314l185,74L208,424z M399,1003l-18,32l-63-42l-42,22
		l-100-59l9-27l114,46l44-23L399,1003z M144,897l-50,32l-27-59L144,897z M658,1485l-27,27l-41-27l28-28L658,1485z M586,1444l-32,18
		l-42-28l32-40L586,1444z M2636,746l-5-37l-23,3l3,37L2636,746z M2554,805l-30-59l25-34l-13-14l-26,20l6,97L2554,805z M2413,744
		l-33-53l-31-6l2,24l-27,3l-23-30l-41,51l8,32l36-28h28L2413,744z"/>
</g>
<rect x="1798.7" y="474.9" class="st1" width="157.5" height="101.4"/>
<polyline class="st2" points="1975.4,639.8 1933,673 1960,701 1965.3,710.3 1962.3,735 1973.5,748.9 2015,733 2034,743 
	2056.8,723.5 2044.5,691.4 2053.5,647.8 2006,633 1979,637 "/>
<polygon class="st3" points="2025.4,765 1911.7,765 1876.5,656.8 1968.6,589.9 2060.6,656.8 "/>
<rect x="1909.5" y="676.8" class="st4" width="137.5" height="42.4"/>
<text transform="matrix(1 0 0 1 1909.5455 695.4338)" class="st5 st6 st7">FRANCE</text>
<polygon class="st8" points="2040.1,639.6 2056.8,618.4 2065,599.9 2057,587 2093.4,564.7 2134.4,596.5 2137.7,618.4 2125.8,633 
	2127.8,654.8 2137.7,660.7 2127.8,676.6 2116,697 2101.4,709 2082.9,709 2065,715 2044.5,691.4 "/>
<polygon class="st9" points="734.7,587 796.8,596.5 849.6,609.9 920,603.3 984.4,587 1065.8,535.7 1087,542 1146,610 1168,542 
	1155,528 1155,460 1296,483 1410,620 1250,711 1250,760 1222,756 1195,783 1201,819 1136,874 1155,934 1123,934 1096,893 996,893 
	958,961 996,997 1013,997 1049,975 1073,988 1064,1039 1059,1079 1023,1083 895,1011 854,961 804,961 667,779 673,688 626,620 
	595,629 572,583 "/>
<rect x="735.3" y="607.4" transform="matrix(0.9361 -0.3517 0.3517 0.9361 -190.7273 364.6744)" class="st10" width="346.2" height="199.9"/>
<rect x="831.3" y="693.4" class="st4" width="220.6" height="61.5"/>
<text transform="matrix(1 0 0 1 831.3056 727.8164)" class="st5 st6 st11">USA</text>
<polygon class="st12" points="1928,510 1947,555 1987,587 1983,625 1919,625 1939,587 1919,567.5 1897,542 "/>
<polygon class="st12" points="1874,560 1848,605 1879,633 1907,602 "/>
<rect x="1796.8" y="499.5" class="st4" width="161.5" height="52.2"/>
<text transform="matrix(1 0 0 1 1821.895 518.0872)"><tspan x="0" y="0" class="st5 st6 st7">UNITED </tspan><tspan x="-15.2" y="28" class="st5 st6 st7">KINGDOM</tspan></text>
<ellipse class="st13" cx="2249.6" cy="1449.4" rx="86.9" ry="54.5"/>
<rect x="2175.6" y="1442.5" class="st4" width="153.8" height="27.7"/>
<text transform="matrix(1 0 0 1 2184.5178 1459.6615)" class="st5 st6 st14">BOTSWAN</text>
<rect x="1960.7" y="1048.5" class="st15" width="35.3" height="107.5"/>
<rect x="1968.6" y="1060.5" class="st4" width="54.8" height="91.3"/>
<text transform="matrix(1 0 0 1 1968.5596 1077.7214)"><tspan x="0" y="0" class="st5 st6 st14">T</tspan><tspan x="0" y="22" class="st5 st6 st14">O</tspan><tspan x="0" y="44" class="st5 st6 st14">G</tspan><tspan x="0" y="66" class="st5 st6 st14">O</tspan></text>
<rect x="1954.7" y="510" class="st1" width="0" height="5.3"/>
<circle cx="2144.5" cy="589.9" r="83.9"/>
<rect x="2066.7" y="579.5" class="st4" width="155.6" height="53.5"/>
<text transform="matrix(1 0 0 1 2082.1858 595.2473)" class="st5 st6 st16">GERMANY</text>
</svg>
